<?xml version="1.0" encoding="UTF-8" standalone="no"?>
<!DOCTYPE svg PUBLIC "-//W3C//DTD SVG 1.1//EN" "http://www.w3.org/Graphics/SVG/1.1/DTD/svg11.dtd">
<svg width="100%" height="100%" viewBox="0 0 98 108" version="1.1" xmlns="http://www.w3.org/2000/svg" xmlns:xlink="http://www.w3.org/1999/xlink" xml:space="preserve" xmlns:serif="http://www.serif.com/" style="fill-rule:evenodd;clip-rule:evenodd;stroke-linejoin:round;stroke-miterlimit:2;">
    <path d="M11.421,17.092C23.988,13.331 36.566,11.421 48.868,11.421C61.17,11.421 73.748,13.331 86.316,17.092C86.297,47.135 85.389,77.815 48.869,95.1C12.348,77.815 11.44,47.135 11.421,17.092Z" style="fill:white;"/>
    <g transform="matrix(1,0,0,1,4.210343,4.210343)">
        <path d="M42.959,102.658L42.356,102.392C21.438,93.18 8.121,79.454 1.504,60.571C-4.13,44.496 -4.211,26.635 -4.21,9.353L-4.21,7.608C-4.21,5.792 -3.045,4.18 -1.319,3.61L-0.29,3.27C14.766,-1.699 29.89,-4.21 44.658,-4.21C59.426,-4.21 74.549,-1.699 89.606,3.27L90.635,3.61C92.361,4.18 93.526,5.792 93.526,7.608L93.526,9.352C93.527,26.635 93.445,44.496 87.812,60.571C81.195,79.454 67.878,93.18 46.961,102.391L46.357,102.658C45.274,103.135 44.041,103.135 42.959,102.658ZM7.211,12.882C7.23,42.925 8.137,73.604 44.658,90.889C81.179,73.604 82.086,42.925 82.105,12.882C69.538,9.121 56.96,7.21 44.658,7.21C32.355,7.21 19.778,9.121 7.211,12.882Z" style="fill:white;"/>
    </g>
    <g transform="matrix(1,0,0,1,4.210343,4.210343)">
        <path d="M44.658,98.806L44.053,98.539C24.334,89.855 11.715,76.979 5.477,59.178C-0.002,43.543 -0.001,26.162 0,9.353L0,7.608L1.03,7.269C15.644,2.445 30.323,0 44.658,0C58.993,0 73.671,2.445 88.286,7.269L89.316,7.608L89.316,9.353C89.317,26.162 89.318,43.543 83.839,59.178C77.601,76.979 64.982,89.855 45.262,98.539L44.658,98.806ZM3,9.781C2.999,42.835 3.171,76.93 44.658,95.525C86.145,76.93 86.317,42.835 86.316,9.782C72.346,5.281 58.336,3 44.658,3C30.979,3 16.969,5.281 3,9.781Z" style="fill:rgb(229,40,33);"/>
        <path d="M19.5,36.11L37.11,36.11L37.11,18.5L52.205,18.5L52.205,36.11L69.816,36.11L69.816,51.205L52.205,51.205L52.205,68.816L37.11,68.816L37.11,51.205L19.5,51.205L19.5,36.11Z" style="fill:rgb(229,40,33);fill-rule:nonzero;"/>
    </g>
</svg>
